# xmcd
#
# Track frame offsets:
#       150
#       11665
#       20670
#       34376
#       44845
#       55522
#       66856
#       77965
#       91166
#       100683
#       111240
#       123147
#       135953
#       146883
#       156926
#       167108
#
# Disc length: 2386 seconds
#
# Revision: 0
# Processed by: cddbd v1.5.1PL0 Copyright (c) Steve Scherf et al.
# Submitted via: CD-DA_X-Tractor v0.24
#
DISCID=d8095010
DTITLE=Tom Jones and Friends - Never Better
DYEAR=1999
DGENRE=Blues
TTITLE0=Hot Legs
TTITLE1=Upside Down
TTITLE2=Too Much, Too Little, Too Late
TTITLE3=I'm Leaving It Up To You
TTITLE4=Don't Let Go
TTITLE5=Guilty
TTITLE6=Whenever I Call You Friend
TTITLE7=Girl From New York City
TTITLE8=I Love The Nightlife
TTITLE9=I Get A Kick Out Of You
TTITLE10=We Can Work It Out
TTITLE11=Reunited
TTITLE12=Nights On Broadway
TTITLE13=Takin' It To The Streets
TTITLE14=The Closer I Get To You
TTITLE15=Endless Love
EXTD=
EXTT0=
EXTT1=
EXTT2=
EXTT3=
EXTT4=
EXTT5=
EXTT6=
EXTT7=
EXTT8=
EXTT9=
EXTT10=
EXTT11=
EXTT12=
EXTT13=
EXTT14=
EXTT15=
PLAYORDER=
